<svg xmlns="http://www.w3.org/2000/svg" viewBox="0 0 1000 460" font-family="'Arial Black', Impact, 'Barlow Condensed', sans-serif">
  <!-- Top band: PUT [mark] THE -->
  <rect x="30" y="30" width="940" height="150" rx="6" fill="#00338D"/>
  <text x="70" y="140" font-size="120" font-weight="900" fill="#ffffff" letter-spacing="-2">PUT</text>
  <!-- stylised charging-buffalo stripe mark -->
  <g transform="translate(470,105)">
    <path d="M-70 -8 C-55 -34 -18 -40 6 -26 C10 -40 30 -44 44 -34 C64 -40 92 -26 96 -2
             C84 4 60 2 40 -2 L44 26 C20 34 -8 30 -26 16 C-46 22 -66 12 -70 -8 Z"
          fill="#ffffff"/>
    <path d="M-64 -6 L86 -6 L70 6 L-60 6 Z" fill="#C60C30"/>
  </g>
  <text x="720" y="140" font-size="120" font-weight="900" fill="#ffffff" letter-spacing="-2">THE</text>
  <!-- BALL DOWN -->
  <text x="40" y="410" font-size="220" font-weight="900" fill="#00338D" letter-spacing="-6">BALL DOWN</text>
</svg>
